<svg xmlns="http://www.w3.org/2000/svg" xmlns:xlink="http://www.w3.org/1999/xlink" xmlns:inkscape="http://www.inkscape.org/namespaces/inkscape" version="1.1" width="198.824" height="99.611" viewBox="0 0 198.824 99.611">
<path transform="matrix(1,0,0,-1,71.065,71.065)" stroke-width=".3985" stroke-linecap="butt" stroke-miterlimit="10" stroke-linejoin="miter" fill="none" stroke="#bfbfbf" d="M-70.867-28.34679H127.56062M-70.867-14.17339H127.56062M-70.867 0H127.56062M-70.867 14.17339H127.56062M-70.867 28.34679H127.56062M-70.867 42.52019H127.56062M-70.867 56.69359H127.56062M-70.867 70.86697H127.56062M-70.86697-28.3468V70.867M-56.69359-28.3468V70.867M-42.52019-28.3468V70.867M-28.34679-28.3468V70.867M-14.17339-28.3468V70.867M0-28.3468V70.867M14.17339-28.3468V70.867M28.34679-28.3468V70.867M42.52019-28.3468V70.867M56.69359-28.3468V70.867M70.86697-28.3468V70.867M85.04037-28.3468V70.867M99.21378-28.3468V70.867M113.38718-28.3468V70.867M127.56056-28.3468V70.867M127.56062 70.867"/>
<path transform="matrix(1,0,0,-1,71.065,71.065)" stroke-width=".19925" stroke-linecap="round" stroke-linejoin="round" fill="none" stroke="#0000ff" d="M0 0V0H56.69362L28.3468 42.5202Z"/>
<path transform="matrix(1,0,0,-1,71.065,71.065)" stroke-width=".19925" stroke-linecap="round" stroke-dasharray="2.98883,2.98883" stroke-linejoin="round" fill="none" stroke="#0000ff" d="M62.36288 14.17339V14.17339H119.0565L90.7097 56.6936Z"/>
<path transform="matrix(1,0,0,-1,71.065,71.065)" d="M.99628 0C.99628 .55023 .55023 .99628 0 .99628-.55023 .99628-.99628 .55023-.99628 0-.99628-.55023-.55023-.99628 0-.99628 .55023-.99628 .99628-.55023 .99628 0ZM0 0" fill="#e5e6e5"/>
<path transform="matrix(1,0,0,-1,71.065,71.065)" stroke-width=".3985" stroke-linecap="butt" stroke-miterlimit="10" stroke-linejoin="miter" fill="none" stroke="#000000" d="M.99628 0C.99628 .55023 .55023 .99628 0 .99628-.55023 .99628-.99628 .55023-.99628 0-.99628-.55023-.55023-.99628 0-.99628 .55023-.99628 .99628-.55023 .99628 0ZM0 0"/>
<path transform="matrix(1,0,0,-1,71.065,71.065)" d="M57.6899 0C57.6899 .55023 57.24385 .99628 56.69362 .99628 56.14337 .99628 55.69734 .55023 55.69734 0 55.69734-.55023 56.14337-.99628 56.69362-.99628 57.24385-.99628 57.6899-.55023 57.6899 0ZM56.69362 0" fill="#e5e6e5"/>
<path transform="matrix(1,0,0,-1,71.065,71.065)" stroke-width=".3985" stroke-linecap="butt" stroke-miterlimit="10" stroke-linejoin="miter" fill="none" stroke="#000000" d="M57.6899 0C57.6899 .55023 57.24385 .99628 56.69362 .99628 56.14337 .99628 55.69734 .55023 55.69734 0 55.69734-.55023 56.14337-.99628 56.69362-.99628 57.24385-.99628 57.6899-.55023 57.6899 0ZM56.69362 0"/>
<path transform="matrix(1,0,0,-1,71.065,71.065)" d="M29.34308 42.5202C29.34308 43.07043 28.89703 43.51648 28.3468 43.51648 27.79657 43.51648 27.35052 43.07043 27.35052 42.5202 27.35052 41.96997 27.79657 41.52393 28.3468 41.52393 28.89703 41.52393 29.34308 41.96997 29.34308 42.5202ZM28.3468 42.5202" fill="#e5e6e5"/>
<path transform="matrix(1,0,0,-1,71.065,71.065)" stroke-width=".3985" stroke-linecap="butt" stroke-miterlimit="10" stroke-linejoin="miter" fill="none" stroke="#000000" d="M29.34308 42.5202C29.34308 43.07043 28.89703 43.51648 28.3468 43.51648 27.79657 43.51648 27.35052 43.07043 27.35052 42.5202 27.35052 41.96997 27.79657 41.52393 28.3468 41.52393 28.89703 41.52393 29.34308 41.96997 29.34308 42.5202ZM28.3468 42.5202"/>
<path transform="matrix(1,0,0,-1,71.065,71.065)" d="M63.35916 14.17339C63.35916 14.72363 62.91312 15.16966 62.36288 15.16966 61.81265 15.16966 61.36661 14.72363 61.36661 14.17339 61.36661 13.62315 61.81265 13.17711 62.36288 13.17711 62.91312 13.17711 63.35916 13.62315 63.35916 14.17339ZM62.36288 14.17339" fill="#e5e6e5"/>
<path transform="matrix(1,0,0,-1,71.065,71.065)" stroke-width=".3985" stroke-linecap="butt" stroke-miterlimit="10" stroke-linejoin="miter" fill="none" stroke="#000000" d="M63.35916 14.17339C63.35916 14.72363 62.91312 15.16966 62.36288 15.16966 61.81265 15.16966 61.36661 14.72363 61.36661 14.17339 61.36661 13.62315 61.81265 13.17711 62.36288 13.17711 62.91312 13.17711 63.35916 13.62315 63.35916 14.17339ZM62.36288 14.17339"/>
<path transform="matrix(1,0,0,-1,71.065,71.065)" d="M120.05278 14.17339C120.05278 14.72363 119.60674 15.16966 119.0565 15.16966 118.50627 15.16966 118.06023 14.72363 118.06023 14.17339 118.06023 13.62315 118.50627 13.17711 119.0565 13.17711 119.60674 13.17711 120.05278 13.62315 120.05278 14.17339ZM119.0565 14.17339" fill="#e5e6e5"/>
<path transform="matrix(1,0,0,-1,71.065,71.065)" stroke-width=".3985" stroke-linecap="butt" stroke-miterlimit="10" stroke-linejoin="miter" fill="none" stroke="#000000" d="M120.05278 14.17339C120.05278 14.72363 119.60674 15.16966 119.0565 15.16966 118.50627 15.16966 118.06023 14.72363 118.06023 14.17339 118.06023 13.62315 118.50627 13.17711 119.0565 13.17711 119.60674 13.17711 120.05278 13.62315 120.05278 14.17339ZM119.0565 14.17339"/>
<path transform="matrix(1,0,0,-1,71.065,71.065)" d="M91.70598 56.6936C91.70598 57.24384 91.25993 57.68988 90.7097 57.68988 90.15945 57.68988 89.71342 57.24384 89.71342 56.6936 89.71342 56.14336 90.15945 55.69733 90.7097 55.69733 91.25993 55.69733 91.70598 56.14336 91.70598 56.6936ZM90.7097 56.6936" fill="#e5e6e5"/>
<path transform="matrix(1,0,0,-1,71.065,71.065)" stroke-width=".3985" stroke-linecap="butt" stroke-miterlimit="10" stroke-linejoin="miter" fill="none" stroke="#000000" d="M91.70598 56.6936C91.70598 57.24384 91.25993 57.68988 90.7097 57.68988 90.15945 57.68988 89.71342 57.24384 89.71342 56.6936 89.71342 56.14336 90.15945 55.69733 90.7097 55.69733 91.25993 55.69733 91.70598 56.14336 91.70598 56.6936ZM90.7097 56.6936"/>
<text xml:space="preserve" transform="matrix(1 0 -0 1 0 99.611)" font-size="4.9813" font-family="CMMI5" font-style="italic"><tspan y="-21.622" x="68.485">A</tspan></text>
<text xml:space="preserve" transform="matrix(1 0 -0 1 .0000076293949 99.611)" font-size="4.9813" font-family="CMMI5" font-style="italic"><tspan y="-21.622" x="125.059">B</tspan></text>
<text xml:space="preserve" transform="matrix(1 0 -0 1 0 99.61101)" font-size="4.9813" font-family="CMMI5" font-style="italic"><tspan y="-34.422" x="129.499">A</tspan></text>
<text xml:space="preserve" transform="matrix(1 0 -0 1 0 99.61101)" font-size="4.9813" font-family="CMSY5" font-style="italic"><tspan y="-36.432" x="134.661">&#x2032;</tspan></text>
<text xml:space="preserve" transform="matrix(1 0 -0 1 0 99.61101)" font-size="4.9813" font-family="CMMI5" font-style="italic"><tspan y="-34.422" x="186.074">B</tspan></text>
<text xml:space="preserve" transform="matrix(1 0 -0 1 0 99.61101)" font-size="4.9813" font-family="CMSY5" font-style="italic"><tspan y="-36.432" x="191.472">&#x2032;</tspan></text>
<text xml:space="preserve" transform="matrix(1 0 -0 1 0 99.611)" font-size="4.9813" font-family="CMMI5" font-style="italic"><tspan y="-74.585" x="96.762">C</tspan></text>
<text xml:space="preserve" transform="matrix(1 0 -0 1 0 99.61101)" font-size="4.9813" font-family="CMMI5" font-style="italic"><tspan y="-88.758" x="157.776">C</tspan></text>
<text xml:space="preserve" transform="matrix(1 0 -0 1 0 99.61101)" font-size="4.9813" font-family="CMSY5" font-style="italic"><tspan y="-90.769008" x="163.077">&#x2032;</tspan></text>
<path transform="matrix(1,0,0,-1,71.065,71.065)" stroke-width=".19925" stroke-linecap="round" stroke-miterlimit="10" stroke-linejoin="miter" fill="none" stroke="#ec008c" d="M0 0 59.88547 13.61037"/>
<path transform="matrix(.9751,-.2216,-.2216,-.9751,129.63919,57.752645)" d="M3.60172 0 .32162 1.2333 1.39456 0 .32162-1.2333Z" fill="#ec008c"/>
<path transform="matrix(.9751,-.2216,-.2216,-.9751,129.63919,57.752645)" stroke-width=".19925" stroke-linecap="round" stroke-miterlimit="10" stroke-linejoin="miter" fill="none" stroke="#ec008c" d="M3.60172 0 .32162 1.2333 1.39456 0 .32162-1.2333Z"/>
<path transform="matrix(1,0,0,-1,71.065,71.065)" stroke-width=".19925" stroke-linecap="round" stroke-miterlimit="10" stroke-linejoin="miter" fill="none" stroke="#ec008c" d="M56.69362 0 116.57909 13.61037"/>
<path transform="matrix(.9751,-.2216,-.2216,-.9751,186.3328,57.752645)" d="M3.60172 0 .32162 1.2333 1.39456 0 .32162-1.2333Z" fill="#ec008c"/>
<path transform="matrix(.9751,-.2216,-.2216,-.9751,186.3328,57.752645)" stroke-width=".19925" stroke-linecap="round" stroke-miterlimit="10" stroke-linejoin="miter" fill="none" stroke="#ec008c" d="M3.60172 0 .32162 1.2333 1.39456 0 .32162-1.2333Z"/>
<path transform="matrix(1,0,0,-1,71.065,71.065)" stroke-width=".19925" stroke-linecap="round" stroke-miterlimit="10" stroke-linejoin="miter" fill="none" stroke="#ec008c" d="M28.3468 42.5202 88.23227 56.13057"/>
<path transform="matrix(.9751,-.2216,-.2216,-.9751,157.986,15.232433)" d="M3.60172 0 .32162 1.2333 1.39456 0 .32162-1.2333Z" fill="#ec008c"/>
<path transform="matrix(.9751,-.2216,-.2216,-.9751,157.986,15.232433)" stroke-width=".19925" stroke-linecap="round" stroke-miterlimit="10" stroke-linejoin="miter" fill="none" stroke="#ec008c" d="M3.60172 0 .32162 1.2333 1.39456 0 .32162-1.2333Z"/>
<path transform="matrix(1,0,0,-1,71.065,71.065)" stroke-width=".79701" stroke-linecap="round" stroke-miterlimit="10" stroke-linejoin="miter" fill="none" stroke="#00aeef" d="M-56.69362 14.17339 1.66129 27.43593"/>
<path transform="matrix(.9751,-.2216,-.2216,-.9751,70.3226,44.175344)" d="M5.44046 0 1.28693 1.57065 2.66432 0 1.28693-1.57065Z" fill="#00aeef"/>
<path transform="matrix(.9751,-.2216,-.2216,-.9751,70.3226,44.175344)" stroke-width=".79701" stroke-linecap="round" stroke-miterlimit="10" stroke-linejoin="miter" fill="none" stroke="#00aeef" d="M5.44046 0 1.28693 1.57065 2.66432 0 1.28693-1.57065Z"/>
<text xml:space="preserve" transform="matrix(1 0 -0 1 .0000038146974 99.611)" font-size="9.9626" font-family="CMMI10" font-style="italic"><tspan y="-39.168" x="42.573 42.702516">&#x20d7;u</tspan></text>
</svg>
